<svg width="152" height="49" viewBox="0 0 152 49" fill="none" xmlns="http://www.w3.org/2000/svg">
<path d="M26.0558 3.08255V25.6172H20.8725V15.2677L21.0432 8.3364H20.9989L15.4426 25.6172H10.7017L5.14543 8.3364H5.07589L5.196 15.2677V25.6172H0V3.08255H8.35658L11.9028 14.5524L13.167 19.3315H13.2365L14.5324 14.5841L18.0406 3.08255H26.0558Z" fill="#E13F16"/>
<path d="M47.769 8.54532L41.5617 25.6362C41.0619 27.1549 40.3626 28.6003 39.482 29.9342C38.815 30.93 37.8969 31.7315 36.8208 32.2573C35.661 32.7606 34.4055 33.0047 33.1419 32.9726C32.2562 32.9808 31.3728 32.8787 30.5123 32.6687C29.7814 32.4862 29.0809 32.1983 28.4326 31.8142L29.5957 27.8896C29.986 28.1771 30.425 28.3916 30.8915 28.5226C31.46 28.6626 32.0446 28.7265 32.6299 28.7125C33.1987 28.7342 33.7639 28.6123 34.2734 28.358C34.7519 28.059 35.1082 27.5989 35.2784 27.0604L35.7209 26.0033L33.7424 21.3571L28.5843 8.54532H34.9624L37.5857 18.2744L38.4074 21.8952L39.3619 18.1352L41.9852 8.54532H47.769Z" fill="#E13F16"/>
<path d="M70.1649 19.1606C69.8025 20.6044 69.0879 21.9355 68.0853 23.0345C67.144 24.0381 65.9754 24.8001 64.6782 25.2564C63.2726 25.7366 61.7952 25.9721 60.3102 25.9527C58.2587 26.007 56.2277 25.5318 54.4126 24.5727C52.7776 23.6601 51.4558 22.2747 50.6199 20.5975C49.7446 18.6313 49.2922 16.5026 49.2922 14.3499C49.2922 12.1971 49.7446 10.0684 50.6199 8.1022C51.4537 6.42203 52.776 5.03398 54.4126 4.12066C56.2183 3.16686 58.2377 2.69181 60.2786 2.74074C61.7484 2.72568 63.2108 2.95016 64.6086 3.40537C65.865 3.8109 67.0084 4.507 67.9462 5.4373C68.8946 6.4149 69.5665 7.62731 69.8931 8.95041L64.7414 11.033C64.4253 9.62772 63.9091 8.66134 63.1927 8.13384C62.3976 7.58486 61.4459 7.30941 60.4809 7.34894C59.498 7.32389 58.5305 7.59753 57.7059 8.13384C56.8783 8.711 56.2473 9.52845 55.8981 10.4759C55.4401 11.7144 55.2254 13.0298 55.266 14.3499C55.2329 15.659 55.4298 16.9638 55.8475 18.2048C56.1596 19.1614 56.777 19.9888 57.6048 20.5595C58.4752 21.1087 59.4908 21.3823 60.5188 21.3445C61.5209 21.3755 62.5023 21.0554 63.2938 20.4393C64.1221 19.7247 64.6726 18.7409 64.8488 17.6604L70.1649 19.1606Z" fill="#E13F16"/>
<path d="M73.0284 25.6172V8.52631H78.1422L78.3824 12.2103C78.7344 11.0593 79.4025 10.0305 80.3104 9.24157C81.235 8.51179 82.3895 8.13689 83.5658 8.18448C83.9371 8.17792 84.308 8.21188 84.672 8.28576C84.9297 8.33533 85.1775 8.4273 85.4053 8.55795L84.8427 13.356C84.5623 13.2529 84.2721 13.1786 83.9767 13.1345C83.558 13.0745 83.1353 13.047 82.7124 13.0522C82.0545 13.0497 81.405 13.2014 80.8161 13.4953C80.2309 13.7883 79.7418 14.243 79.4065 14.8056C79.0299 15.4767 78.8461 16.2392 78.8755 17.0084V25.6172H73.0284Z" fill="#E13F16"/>
<path d="M95.8036 25.9527C94.1117 25.9979 92.4337 25.6354 90.911 24.8956C89.5775 24.2224 88.4765 23.164 87.7504 21.8572C87.0104 20.3731 86.6251 18.7369 86.6251 17.0781C86.6251 15.4192 87.0104 13.7831 87.7504 12.299C88.4826 10.9969 89.582 9.94002 90.911 9.26059C92.3531 8.53514 93.9499 8.17233 95.5634 8.2035C97.154 8.15656 98.7306 8.51368 100.146 9.2416C101.367 9.89427 102.369 10.8913 103.029 12.1091C103.703 13.3988 104.042 14.8377 104.015 16.2932C104.015 16.7046 104.015 17.1161 103.983 17.5212C103.952 17.9263 103.926 18.2744 103.882 18.5466H90.3484V15.4386H101.278L98.5154 16.5021C98.5874 15.3986 98.3347 14.2982 97.7884 13.3371C97.538 12.973 97.1968 12.681 96.7986 12.4899C96.4005 12.2989 95.9594 12.2156 95.5191 12.2483C94.8623 12.2286 94.2148 12.4073 93.6607 12.761C93.109 13.1522 92.7023 13.7154 92.5039 14.3625C92.2148 15.2659 92.0822 16.2122 92.112 17.1604C92.0777 18.086 92.2281 19.0092 92.5545 19.8759C92.7921 20.5061 93.2383 21.0356 93.8187 21.3761C94.4267 21.7002 95.1088 21.8595 95.7973 21.8382C96.5197 21.8754 97.2369 21.6969 97.858 21.3255C98.3759 20.9764 98.7751 20.4773 99.0021 19.8949L103.642 21.4331C103.33 22.396 102.756 23.2529 101.986 23.9081C101.166 24.5977 100.216 25.1144 99.1917 25.4273C98.096 25.7755 96.9532 25.9527 95.8036 25.9527Z" fill="#E13F16"/>
<path d="M113.497 25.9527C112.188 25.9837 110.9 25.6221 109.799 24.9145C108.702 24.1714 107.849 23.1212 107.346 21.8952C106.172 18.8024 106.183 15.3839 107.378 12.2989C107.911 11.0637 108.789 10.0087 109.906 9.26056C111.02 8.5471 112.32 8.17934 113.642 8.20347C114.327 8.17422 115.011 8.28485 115.652 8.5286C116.293 8.77236 116.878 9.14414 117.371 9.62137C118.338 10.6036 118.976 11.8621 119.198 13.2231L118.655 13.9384V1.2785H124.451V25.5918H119.268L118.888 19.7873L119.571 20.3C119.465 21.3577 119.109 22.3751 118.535 23.2687C117.992 24.1109 117.241 24.7984 116.355 25.2642C115.469 25.73 114.478 25.9585 113.478 25.9273L113.497 25.9527ZM115.507 21.6863C116.112 21.7068 116.707 21.5216 117.194 21.1609C117.702 20.7496 118.076 20.1966 118.269 19.5721C118.542 18.7348 118.67 17.8572 118.648 16.9768C118.668 16.1477 118.546 15.3214 118.288 14.5334C118.097 13.9284 117.73 13.3947 117.232 13.0016C116.745 12.6408 116.151 12.4536 115.545 12.4698C115.09 12.4532 114.638 12.5449 114.226 12.7375C113.814 12.9301 113.453 13.2181 113.174 13.5776C112.593 14.3182 112.302 15.4766 112.302 17.0781C112.302 18.6795 112.586 19.8379 113.155 20.5785C113.429 20.9397 113.785 21.2291 114.195 21.4221C114.604 21.615 115.055 21.7056 115.507 21.6863Z" fill="#E13F16"/>
<path d="M131.499 6.56403C130.591 6.64137 129.684 6.40696 128.926 5.89937C128.642 5.63299 128.422 5.30536 128.283 4.94127C128.144 4.57717 128.09 4.18617 128.124 3.79785C128.087 3.40462 128.141 3.00829 128.28 2.63876C128.419 2.26923 128.64 1.93614 128.926 1.66464C129.684 1.15705 130.591 0.922662 131.499 0.999999C132.403 0.929069 133.304 1.16304 134.059 1.66464C134.349 1.93408 134.573 2.26651 134.715 2.63632C134.856 3.00614 134.911 3.40351 134.875 3.79785C134.91 4.18741 134.855 4.57989 134.713 4.94451C134.572 5.30913 134.348 5.63596 134.059 5.89937C133.304 6.40097 132.403 6.63496 131.499 6.56403ZM134.394 8.54531V25.6362H128.604V8.54531H134.394Z" fill="#E13F16"/>
<path d="M150.728 8.5453V12.6724H136.916V8.5453H150.728ZM145.671 3.1142V19.5404C145.64 19.8587 145.678 20.1799 145.781 20.4824C145.885 20.7849 146.052 21.0616 146.272 21.2938C146.736 21.6721 147.325 21.8619 147.922 21.8255C148.4 21.8351 148.878 21.7711 149.338 21.6356C149.729 21.5191 150.094 21.3278 150.412 21.0723L151.044 24.6613C150.391 25.1071 149.663 25.4309 148.895 25.6172C148.028 25.8435 147.136 25.9562 146.24 25.9527C145.095 25.9804 143.955 25.7958 142.877 25.4083C141.98 25.0823 141.214 24.4708 140.696 23.6675C140.143 22.7068 139.865 21.6115 139.894 20.5026V4.72201L145.671 3.1142Z" fill="#E13F16"/>
<path d="M87.7125 32.2889V49H85.007V32.2889H87.7125Z" fill="#621C0D"/>
<path d="M106.335 32.2889V49H103.123L96.6886 38.486L95.0703 35.5236L95.1715 38.2328V48.9937H92.6936V32.2826H95.8542L102.276 42.7903L103.92 45.8034L103.819 43.0688V32.3079L106.335 32.2889Z" fill="#621C0D"/>
<path d="M117.169 32.2889C119.778 32.2889 121.813 33.0106 123.275 34.4538C124.738 35.897 125.467 37.9606 125.462 40.6445C125.462 43.3284 124.733 45.3919 123.275 46.8352C121.817 48.2784 119.782 49 117.169 49H111.278V32.2889H117.169ZM117.169 46.6959C117.92 46.7445 118.672 46.628 119.373 46.3546C120.074 46.0812 120.707 45.6576 121.227 45.1134C122.163 44.0584 122.631 42.5688 122.631 40.6445C122.631 38.7455 122.163 37.2263 121.227 36.1755C120.708 35.63 120.075 35.2054 119.374 34.9319C118.673 34.6584 117.92 34.5428 117.169 34.5931H114.009V46.7149L117.169 46.6959Z" fill="#621C0D"/>
<path d="M132.188 32.2889V49H129.483V32.2889H132.188Z" fill="#621C0D"/>
<path d="M151 49H148.143L146.55 44.6197H139.546L137.94 49H135.159L141.48 32.2889H144.717L151 49ZM140.305 42.4169H145.791L143.061 34.6184L140.305 42.4169Z" fill="#621C0D"/>
<path d="M131.499 6.56403C130.591 6.64137 129.684 6.40696 128.926 5.89937C128.642 5.63299 128.422 5.30536 128.283 4.94127C128.144 4.57717 128.09 4.18617 128.124 3.79785C128.087 3.40462 128.141 3.00829 128.28 2.63876C128.419 2.26923 128.64 1.93614 128.926 1.66464C129.684 1.15705 130.591 0.922662 131.499 0.999999C132.403 0.929069 133.304 1.16304 134.059 1.66464C134.349 1.93408 134.573 2.26651 134.715 2.63632C134.856 3.00614 134.911 3.40351 134.875 3.79785C134.91 4.18741 134.855 4.57989 134.713 4.94451C134.572 5.30913 134.348 5.63596 134.059 5.89937C133.304 6.40097 132.403 6.63496 131.499 6.56403Z" fill="#621C0D"/>
</svg>
